HIERARCHY
ROOT SimulationBone
{
	OFFSET 0.000000 0.000000 0.000000
	CHANNELS 6 Xposition Yposition Zposition Zrotation Yrotation Xrotation 
	JOINT Hips
	{
		OFFSET 0.000000 0.000000 0.000000
		CHANNELS 6 Xposition Yposition Zposition Zrotation Yrotation Xrotation 
		JOINT LeftUpLeg
		{
			OFFSET 0.103458 1.857831 10.548500
			CHANNELS 3 Zrotation Yrotation Xrotation
			JOINT LeftLeg
			{
				OFFSET 43.500000 -0.000027 -0.000013
				CHANNELS 3 Zrotation Yrotation Xrotation
				JOINT LeftFoot
				{
					OFFSET 42.372196 0.000031 0.000011
					CHANNELS 3 Zrotation Yrotation Xrotation
					JOINT LeftToe
					{
						OFFSET 17.299994 -0.000003 -0.000004
						CHANNELS 3 Zrotation Yrotation Xrotation
						End Site
						{
							OFFSET 0.000000 0.000000 0.000000
						}
					}
				}
			}
		}
		JOINT RightUpLeg
		{
			OFFSET 0.103455 1.857826 -10.548502
			CHANNELS 3 Zrotation Yrotation Xrotation
			JOINT RightLeg
			{
				OFFSET 43.500038 -0.000023 0.000010
				CHANNELS 3 Zrotation Yrotation Xrotation
				JOINT RightFoot
				{
					OFFSET 42.372261 0.000004 0.000006
					CHANNELS 3 Zrotation Yrotation Xrotation
					JOINT RightToe
					{
						OFFSET 17.299988 -0.000008 0.000010
						CHANNELS 3 Zrotation Yrotation Xrotation
						End Site
						{
							OFFSET 0.000000 0.000000 0.000000
						}
					}
				}
			}
		}
		JOINT Spine
		{
			OFFSET 6.901968 -2.603722 -0.000004
			CHANNELS 3 Zrotation Yrotation Xrotation
			JOINT Spine1
			{
				OFFSET 12.588099 -0.000002 0.000005
				CHANNELS 3 Zrotation Yrotation Xrotation
				JOINT Spine2
				{
					OFFSET 12.343202 -0.000017 -0.000005
					CHANNELS 3 Zrotation Yrotation Xrotation
					JOINT Neck
					{
						OFFSET 25.832903 0.000008 0.000008
						CHANNELS 3 Zrotation Yrotation Xrotation
						JOINT Head
						{
							OFFSET 11.766607 0.000004 -0.000001
							CHANNELS 3 Zrotation Yrotation Xrotation
							End Site
							{
								OFFSET 0.000000 0.000000 0.000000
							}
						}
					}
					JOINT LeftShoulder
					{
						OFFSET 19.745907 -1.480366 6.000107
						CHANNELS 3 Zrotation Yrotation Xrotation
						JOINT LeftArm
						{
							OFFSET 11.284126 -0.000031 -0.000025
							CHANNELS 3 Zrotation Yrotation Xrotation
							JOINT LeftForeArm
							{
								OFFSET 33.000050 0.000011 0.000029
								CHANNELS 3 Zrotation Yrotation Xrotation
								JOINT LeftHand
								{
									OFFSET 25.200008 0.000009 0.000011
									CHANNELS 3 Zrotation Yrotation Xrotation
									End Site
									{
										OFFSET 0.000000 0.000000 0.000000
									}
								}
							}
						}
					}
					JOINT RightShoulder
					{
						OFFSET 19.746094 -1.480364 -6.000070
						CHANNELS 3 Zrotation Yrotation Xrotation
						JOINT RightArm
						{
							OFFSET 11.284145 -0.000017 -0.000020
							CHANNELS 3 Zrotation Yrotation Xrotation
							JOINT RightForeArm
							{
								OFFSET 33.000088 0.000019 0.000022
								CHANNELS 3 Zrotation Yrotation Xrotation
								JOINT RightHand
								{
									OFFSET 25.199780 0.000137 0.000414
									CHANNELS 3 Zrotation Yrotation Xrotation
									End Site
									{
										OFFSET 0.000000 0.000000 0.000000
									}
								}
							}
						}
					}
				}
			}
		}
	}
}
MOTION
Frames: 5
Frame Time: 0.033333
-122.715783 0.000000 478.253877 0.000000 -88.089838 0.000000 5.523887 83.407059 -3.950856 105.808670 -6.836128 -167.235160 165.793143 4.196307 174.073641 -55.479762 -2.431874 -4.929033 92.780627 3.557366 0.943289 21.454560 0.003118 0.000017 162.968191 11.080306 -168.212656 -57.562123 -4.219019 0.074900 91.259653 0.992405 6.225414 21.454553 -0.003088 0.000002 9.699904 -0.032038 -0.019543 9.386967 -0.062325 -0.041627 9.068867 -0.062724 -0.041247 16.277734 -2.744856 1.085603 -6.210989 -3.104692 1.577011 139.035017 -80.324254 40.034884 40.746060 37.614484 63.618465 -71.249200 -12.610195 2.413012 5.435119 -10.223184 22.608421 -168.090901 76.988055 13.588818 13.298532 -33.081075 -30.392433 -106.206901 -3.055426 -2.811634 9.355677 -0.762272 -6.276776 
-121.398562 0.000000 484.070081 0.000000 -83.073928 0.000000 6.192053 78.844299 -2.113392 106.938018 -3.187747 -169.508988 162.800578 3.708213 174.823063 -70.335246 2.022924 -7.719868 101.580902 5.009381 -1.739381 21.454557 0.003103 0.000016 162.754037 6.863208 -168.482093 -69.011576 -4.816097 3.739483 101.267308 -1.896084 7.807253 21.454551 -0.003082 0.000002 9.749818 0.632766 0.020766 9.487876 1.261745 0.093355 9.169699 1.262136 0.085724 15.532132 -1.006237 1.653182 -6.755211 -6.015313 3.182740 157.750514 -73.687195 21.474274 29.869111 41.752479 54.280586 -59.778143 -18.946438 2.392423 6.077953 -8.739961 15.074272 -169.845112 71.299785 11.776195 4.720339 -33.080099 -25.237873 -93.032108 0.746793 -2.492145 9.061045 -3.137897 -8.715999 
-120.084637 0.000000 489.856719 0.000000 -78.410180 0.000000 5.947477 77.519707 -1.205240 107.591795 -1.387942 -174.699844 163.620023 3.962601 176.016406 -77.170059 2.272583 -9.298925 101.253101 5.966869 -3.729618 21.454558 0.003103 0.000014 165.514540 3.757407 -171.816018 -72.502403 -4.775195 6.131349 105.525910 -3.706479 10.172751 21.454555 -0.003093 0.000000 9.607836 0.700385 0.608155 9.210942 1.350196 1.270175 8.892833 1.357700 1.261995 18.412443 -0.928189 2.134560 -6.173310 -4.926582 3.414205 163.436701 -71.101156 15.780662 16.084090 51.858088 41.222422 -39.627945 -19.824802 1.790137 12.363138 -14.181202 2.112255 -175.275208 70.306955 6.162266 -4.687431 -40.983952 -30.357517 -72.153169 14.047408 -2.514582 9.402601 7.918640 -13.774383 
-118.776119 0.000000 495.608424 0.000000 -74.068211 0.000000 5.010693 79.236717 -0.870140 106.644147 -2.173163 179.808564 160.815861 6.073804 174.245489 -81.801098 2.554553 -10.344952 85.038061 6.698720 -2.132587 21.454558 0.003109 0.000020 169.560840 5.015191 -172.706770 -69.394449 -5.671124 5.953642 106.207604 -3.612765 11.314858 21.454553 -0.003093 0.000000 9.506031 0.196764 0.973380 9.001984 0.317285 1.959066 8.684070 0.328976 1.957116 14.661319 -2.371816 3.043150 -5.258420 -5.411357 4.162205 163.043910 -71.425091 16.168535 9.370308 60.060941 31.137343 -36.493055 -18.646587 1.633201 17.407885 -17.970649 -5.512045 176.441012 70.303151 -2.391526 -12.039327 -47.200142 -25.486274 -63.206810 17.948576 -2.423197 8.079652 13.309632 -13.826450 
-117.475119 0.000000 501.319825 0.000000 -70.011286 0.000000 3.982485 81.967163 -0.568410 105.393782 -2.494875 176.972447 155.944243 7.177002 172.249926 -85.915399 2.277650 -12.895192 72.266482 9.359336 0.711139 21.454560 0.003109 0.000015 174.738874 6.718001 -170.876894 -63.177419 -5.435812 4.731726 103.944804 -2.612744 11.361281 21.454553 -0.003087 0.000000 9.426728 -0.076967 1.115763 8.838301 -0.238798 2.222376 8.520465 -0.225523 2.223771 11.120449 -2.877243 3.780334 -6.685746 -7.612143 5.389495 160.485704 -72.262213 18.751528 9.212655 61.935636 38.760115 -45.001886 -20.834020 2.010441 11.289862 -20.110732 5.953154 174.926295 70.408165 -3.951383 -17.263814 -49.125528 -21.450610 -67.445386 16.430278 -2.486803 8.569421 11.987477 -10.734360 
